<?xml version="1.0" encoding="utf-8"?>
<!-- Generator: Adobe Illustrator 16.0.0, SVG Export Plug-In . SVG Version: 6.00 Build 0)  -->
<!DOCTYPE svg PUBLIC "-//W3C//DTD SVG 1.1//EN" "http://www.w3.org/Graphics/SVG/1.1/DTD/svg11.dtd">
<svg version="1.1" id="Layer_1" xmlns="http://www.w3.org/2000/svg" xmlns:xlink="http://www.w3.org/1999/xlink" x="0px" y="0px"
	 width="300px" height="200px" viewBox="0 0 900 600" enable-background="new 0 0 900 600" xml:space="preserve">
<g>
	<g>
		<path fill="#5A3B00" d="M487.459,503.843c0,5.5-4.5,10-10,10h-37c-5.5,0-10-4.5-10-10v-49c0-5.5,4.5-10,10-10h37
			c5.5,0,10,4.5,10,10V503.843z"/>
		<path fill="#855914" d="M445.992,513.846h-5.53c-5.5,0-10-4.5-10-10v-49c0-5.5,4.5-10,10-10h5.53c-5.5,0-10,4.5-10,10v49
			C435.992,509.346,440.492,513.846,445.992,513.846z"/>
		<path fill="#3F2500" d="M487.459,454.841v49c0,5.5-4.5,10-10,10h-14.83c5.5,0,10-4.5,10-10v-49c0-5.5-4.5-10-10-10h14.83
			C482.959,444.841,487.459,449.341,487.459,454.841z"/>
	</g>
	<g>
		<g>
			<path fill="#004B23" d="M286.824,447.507c-0.562-23.938,139.451-213.77,173.083-214.36
				c33.633-0.591,152.708,195.271,153.271,219.21c0.465,19.851-69.223,24.256-147.525,25.632
				C387.353,479.363,287.293,467.507,286.824,447.507z"/>
			<path fill="#006032" d="M286.824,447.507c-0.562-23.938,109.225-223.82,142.856-224.411
				c33.633-0.591,152.708,195.271,153.271,219.21c0.465,19.851-69.223,24.256-147.525,25.632
				C357.126,469.313,287.293,467.507,286.824,447.507z"/>
			<path fill="#6E9E75" d="M464.492,249.985c-8.109-5.65-14.81-8.63-19.45-8.03c-29.45,3.84-100.53,168.79-114.51,223.63
				c-26.5-2.82-43.48-8.261-43.71-18.08c-0.56-23.94,109.23-223.82,142.86-224.41C437.513,222.956,449.973,233.476,464.492,249.985z
				"/>
		</g>
		<g>
			<path fill="#004B23" d="M347.275,340.05c-0.403-19.05,87.32-177.978,114.087-178.403
				c26.77-0.425,121.183,155.606,121.589,174.656c0.337,15.802-55.133,19.216-117.45,20.206
				C403.186,357.498,347.615,355.967,347.275,340.05z"/>
			<path fill="#006032" d="M316.234,323.55c-0.403-19.05,87.32-177.978,114.087-178.403
				c26.77-0.425,121.183,155.606,121.589,174.656c0.337,15.802-55.133,19.216-117.45,20.206
				C372.145,340.998,316.574,339.467,316.234,323.55z"/>
			<path fill="#6E9E75" d="M459.883,168.806c-8.44-5.95-15.311-9.14-19.681-8.38c-22.7,3.95-71.7,130.94-82.76,178.19
				c-24.75-2.08-41.03-6.479-41.21-15.069c-0.4-19.051,87.32-177.97,114.09-178.4C436.902,145.045,447.553,154.375,459.883,168.806z
				"/>
		</g>
		<g>
			<path fill="#004B23" d="M373.841,229.139c-1.628-13.09,31.485-141.251,49.878-142.963
				c18.392-1.712,110.433,114.799,112.063,127.891c1.35,10.854-36.584,16.145-79.403,20.131S375.201,240.076,373.841,229.139z"/>
			<path fill="#006032" d="M357.841,215.012c-1.628-13.09,47.485-127.124,65.878-128.836
				c18.392-1.712,94.433,100.672,96.063,113.764c1.35,10.854-36.584,16.145-79.403,20.131S359.201,225.949,357.841,215.012z"/>
			<path fill="#6E9E75" d="M384.103,221.315c0.21,0.69,0.56,1.31,1.07,1.84c-16.02-0.26-26.63-2.48-27.33-8.14
				c-1.62-13.05,47.16-126.4,65.7-128.81C405.643,105.365,380.603,209.615,384.103,221.315z"/>
		</g>
	</g>
</g>
</svg>
