<svg xmlns="http://www.w3.org/2000/svg" fill="none" viewBox="0 0 185 32" height="32" aria-hidden="true">
    <path fill="#000" d="M180.432 0H4.568C2.045 0 0 1.79 0 4v24c0 2.21 2.045 4 4.568 4h175.864c2.523 0 4.568-1.79 4.568-4V4c0-2.21-2.045-4-4.568-4Z"></path>
    <path fill="#151515" d="M33 0h-1v32h1V0Z"></path>
    <path fill="#fff" d="M44.99 20.717c.846 0 1.576-.185 2.19-.554a3.669 3.669 0 0 0 1.415-1.584c.334-.682.5-1.489.5-2.42v-.012c0-.931-.166-1.738-.5-2.42a3.669 3.669 0 0 0-1.42-1.577c-.614-.37-1.343-.554-2.186-.554-.839 0-1.567.184-2.185.554-.614.369-1.09.895-1.427 1.577-.333.678-.5 1.485-.5 2.42v.012c0 .931.167 1.738.5 2.42a3.72 3.72 0 0 0 1.415 1.584c.614.37 1.346.554 2.197.554Zm0-1.343c-.523 0-.974-.132-1.355-.397-.378-.265-.669-.638-.873-1.12-.201-.482-.301-1.048-.301-1.698v-.012c0-.654.102-1.22.306-1.698.21-.481.502-.852.88-1.113.38-.265.828-.398 1.342-.398.518 0 .965.133 1.343.398.377.26.668.632.873 1.113.208.478.313 1.044.313 1.698v.012c0 .65-.105 1.216-.313 1.698-.205.482-.496.855-.873 1.12-.378.265-.825.397-1.343.397ZM50.72 22.685h1.5v-3.233h.102c.116.237.273.442.47.614.196.173.425.308.686.404.26.092.542.138.843.138.554 0 1.031-.136 1.433-.409.405-.277.718-.668.939-1.174.22-.506.331-1.108.331-1.806v-.012c0-.695-.112-1.295-.337-1.8-.22-.51-.534-.903-.94-1.18-.4-.277-.876-.416-1.426-.416-.31 0-.592.046-.849.139a2.153 2.153 0 0 0-.68.391c-.193.169-.35.371-.47.608h-.102v-1.03h-1.5v8.766Zm3.131-3.34a1.53 1.53 0 0 1-.879-.254 1.67 1.67 0 0 1-.578-.734c-.132-.321-.198-.703-.198-1.144V17.2c0-.442.066-.821.198-1.138.137-.317.328-.56.572-.729.25-.172.544-.258.885-.258.342 0 .635.086.88.258.244.169.433.412.565.729.133.317.199.698.199 1.144v.012c0 .437-.066.817-.199 1.138a1.648 1.648 0 0 1-.566.734 1.511 1.511 0 0 1-.879.253ZM61.353 20.632c.445 0 .837-.056 1.174-.168a2.87 2.87 0 0 0 .855-.452c.237-.188.423-.391.56-.608.14-.22.236-.437.289-.65l.012-.054h-1.421l-.018.042c-.048.1-.133.207-.253.32a1.62 1.62 0 0 1-.476.282 1.881 1.881 0 0 1-.692.114c-.345 0-.644-.076-.897-.228a1.555 1.555 0 0 1-.578-.663c-.136-.289-.205-.636-.205-1.041v-.602c0-.422.069-.777.205-1.066.14-.293.33-.514.566-.662.24-.153.516-.229.825-.229.309 0 .58.072.812.217.237.144.422.361.554.65.133.29.199.652.199 1.09v.596l.71-.94h-4.611v1.006h5.346v-.494c0-.662-.123-1.24-.367-1.733a2.72 2.72 0 0 0-1.048-1.15c-.45-.277-.987-.416-1.613-.416-.623 0-1.164.143-1.626.428a2.813 2.813 0 0 0-1.072 1.192c-.248.513-.373 1.116-.373 1.806v.006c0 .698.127 1.302.38 1.812.252.51.611.903 1.077 1.18.47.277 1.032.415 1.686.415ZM65.808 20.5h1.5v-3.835c0-.33.057-.614.174-.855.116-.24.283-.427.5-.56a1.45 1.45 0 0 1 .77-.199c.454 0 .787.129 1 .386.216.257.325.642.325 1.156V20.5h1.499v-4.256c0-.783-.195-1.387-.584-1.813-.39-.425-.952-.638-1.686-.638-.474 0-.869.1-1.186.301-.317.2-.554.48-.71.837h-.103V13.92h-1.499v6.58ZM76.651 20.5h1.493v-6.58h-1.493v6.58Zm.752-7.682a.853.853 0 0 0 .627-.26.836.836 0 0 0 .265-.62.83.83 0 0 0-.265-.625.853.853 0 0 0-.627-.26.873.873 0 0 0-.632.26.83.83 0 0 0-.264.626c0 .24.088.447.264.62a.873.873 0 0 0 .632.259ZM79.992 20.5h1.5v-3.835c0-.33.058-.614.174-.855.116-.24.283-.427.5-.56a1.45 1.45 0 0 1 .77-.199c.454 0 .787.129 1 .386.216.257.325.642.325 1.156V20.5h1.499v-4.256c0-.783-.195-1.387-.584-1.813-.39-.425-.951-.638-1.686-.638-.473 0-.869.1-1.186.301-.317.2-.554.48-.71.837h-.102V13.92h-1.5v6.58ZM94.598 20.717c.67 0 1.266-.12 1.788-.361a3.367 3.367 0 0 0 1.276-1.018c.33-.433.532-.94.609-1.517v-.048h-1.518l-.012.036a1.925 1.925 0 0 1-1.15 1.372 2.451 2.451 0 0 1-.993.193c-.494 0-.921-.13-1.282-.391-.362-.261-.64-.632-.837-1.114-.193-.482-.29-1.052-.29-1.71v-.012c0-.658.097-1.226.29-1.704.197-.481.475-.852.837-1.113.361-.261.786-.392 1.276-.392.365 0 .696.072.993.217.297.14.546.34.747.596.2.253.337.55.41.891l.005.03h1.518l.006-.048a3.22 3.22 0 0 0-.602-1.565 3.415 3.415 0 0 0-1.295-1.072c-.53-.26-1.124-.391-1.782-.391-.823 0-1.531.184-2.125.554-.594.369-1.054.895-1.379 1.577-.321.678-.481 1.487-.481 2.426v.012c0 .935.16 1.744.481 2.427.325.678.785 1.202 1.379 1.57.598.37 1.308.555 2.131.555ZM102.69 20.632c.658 0 1.222-.136 1.691-.409.474-.277.837-.67 1.09-1.18.257-.51.385-1.12.385-1.83V17.2c0-.707-.128-1.315-.385-1.825a2.745 2.745 0 0 0-1.096-1.173c-.469-.273-1.031-.41-1.685-.41-.655 0-1.218.137-1.692.41-.47.273-.833.666-1.09 1.18-.257.51-.385 1.115-.385 1.818v.012c0 .71.126 1.32.38 1.83.256.51.621.903 1.095 1.18.474.273 1.037.41 1.692.41Zm0-1.216c-.35 0-.647-.086-.891-.259-.241-.172-.426-.423-.554-.752-.129-.33-.193-.725-.193-1.186v-.012c0-.466.064-.861.193-1.186.128-.33.315-.58.56-.753.244-.176.539-.265.885-.265.345 0 .638.089.879.265.244.173.431.424.56.753.128.325.192.72.192 1.186v.012c0 .461-.064.857-.192 1.186a1.653 1.653 0 0 1-.56.752c-.241.173-.534.26-.879.26ZM109.734 20.608c.465 0 .869-.1 1.21-.3.345-.201.608-.48.788-.837h.109V20.5h1.493v-9.127h-1.493v3.594h-.109a1.918 1.918 0 0 0-.788-.843 2.334 2.334 0 0 0-1.21-.313c-.554 0-1.034.139-1.439.416-.402.273-.713.664-.933 1.174-.217.505-.326 1.107-.326 1.806v.012c0 .69.111 1.29.332 1.8.22.51.533.903.939 1.18.405.273.881.41 1.427.41Zm.469-1.264c-.341 0-.634-.084-.879-.253a1.651 1.651 0 0 1-.566-.734c-.132-.317-.198-.697-.198-1.138v-.012c0-.442.066-.821.198-1.138.133-.321.321-.566.566-.735.249-.172.542-.258.879-.258.341 0 .634.086.879.258.249.173.44.418.572.735.137.317.205.696.205 1.138v.012c0 .437-.068.817-.205 1.138a1.627 1.627 0 0 1-.572.734 1.512 1.512 0 0 1-.879.253ZM118.042 20.632c.445 0 .837-.056 1.174-.168.337-.116.622-.267.855-.452.237-.188.423-.391.56-.608.14-.22.237-.437.289-.65l.012-.054h-1.421l-.018.042c-.048.1-.133.207-.253.32-.12.107-.279.202-.476.282a1.877 1.877 0 0 1-.692.114c-.345 0-.644-.076-.897-.228a1.557 1.557 0 0 1-.578-.663c-.136-.289-.205-.636-.205-1.041v-.602c0-.422.069-.777.205-1.066.141-.293.329-.514.566-.662a1.51 1.51 0 0 1 .825-.229c.309 0 .58.072.813.217.236.144.421.361.553.65.133.29.199.652.199 1.09v.596l.711-.94h-4.612v1.006h5.346v-.494c0-.662-.122-1.24-.367-1.733a2.718 2.718 0 0 0-1.048-1.15c-.449-.277-.987-.416-1.613-.416-.622 0-1.164.143-1.626.428a2.81 2.81 0 0 0-1.071 1.192c-.249.513-.374 1.116-.374 1.806v.006c0 .698.127 1.302.38 1.812.252.51.612.903 1.077 1.18.47.277 1.032.415 1.686.415ZM125.67 20.717c.694 0 1.294-.113 1.8-.337.51-.225.901-.542 1.174-.952.277-.41.415-.895.415-1.457v-.006c0-.658-.204-1.18-.614-1.565-.405-.39-1.065-.68-1.98-.873l-.934-.199c-.541-.112-.933-.268-1.174-.47a.955.955 0 0 1-.355-.758v-.006a.99.99 0 0 1 .211-.638c.144-.177.341-.313.59-.41.249-.1.532-.15.849-.15.333 0 .624.05.873.15.249.1.447.237.596.41.152.169.247.367.283.596l.012.072h1.481l-.006-.078a2.36 2.36 0 0 0-.452-1.252 2.729 2.729 0 0 0-1.107-.873c-.47-.217-1.026-.325-1.668-.325-.626 0-1.182.11-1.668.33-.481.217-.861.52-1.138.91a2.31 2.31 0 0 0-.409 1.36v.007c0 .646.201 1.178.602 1.595.405.413 1.054.714 1.945.903l.933.193c.562.12.965.28 1.21.481a.935.935 0 0 1 .367.765v.006c0 .249-.076.47-.229.662a1.519 1.519 0 0 1-.632.446 2.466 2.466 0 0 1-.927.162c-.365 0-.69-.05-.975-.15a1.78 1.78 0 0 1-.687-.428 1.073 1.073 0 0 1-.289-.638l-.006-.06h-1.505l.006.084c.036.498.197.933.482 1.307.285.373.674.664 1.168.873.498.208 1.084.313 1.758.313ZM132.383 20.608c.293 0 .562-.04.807-.12.244-.08.461-.197.65-.35.192-.152.349-.332.469-.541h.103v.903h1.481v-4.497c0-.462-.103-.857-.307-1.186a1.93 1.93 0 0 0-.897-.759c-.394-.177-.875-.265-1.445-.265-.518 0-.976.076-1.373.229a2.363 2.363 0 0 0-.957.644c-.241.277-.386.6-.434.97l-.006.054h1.415l.006-.024a.89.89 0 0 1 .44-.5c.216-.12.495-.18.836-.18.41 0 .719.087.928.264.208.173.313.424.313.753v2.083c0 .26-.069.495-.205.704a1.439 1.439 0 0 1-.56.488c-.237.12-.506.18-.807.18-.333 0-.608-.078-.824-.234a.768.768 0 0 1-.32-.657v-.012c0-.273.101-.485.301-.638.201-.152.512-.24.934-.265l2.221-.144v-.988l-2.432.151c-.803.044-1.421.235-1.854.572-.43.337-.645.799-.645 1.385v.012c0 .401.093.75.277 1.047.189.293.446.52.771.68.329.161.7.241 1.114.241ZM137.693 20.5h1.499v-3.835c0-.33.058-.614.175-.855.116-.24.283-.427.499-.56.217-.132.474-.199.771-.199.453 0 .787.129.999.386.217.257.325.642.325 1.156V20.5h1.5v-4.256c0-.783-.195-1.387-.584-1.813-.39-.425-.952-.638-1.686-.638-.474 0-.869.1-1.186.301-.317.2-.554.48-.711.837h-.102V13.92h-1.499v6.58ZM147.603 20.608c.465 0 .869-.1 1.21-.3.345-.201.608-.48.788-.837h.109V20.5h1.493v-9.127h-1.493v3.594h-.109a1.918 1.918 0 0 0-.788-.843 2.334 2.334 0 0 0-1.21-.313c-.554 0-1.034.139-1.439.416-.402.273-.713.664-.933 1.174-.217.505-.326 1.107-.326 1.806v.012c0 .69.111 1.29.332 1.8.22.51.533.903.939 1.18.405.273.881.41 1.427.41Zm.469-1.264c-.341 0-.634-.084-.879-.253a1.651 1.651 0 0 1-.566-.734c-.132-.317-.198-.697-.198-1.138v-.012c0-.442.066-.821.198-1.138.133-.321.321-.566.566-.735.249-.172.542-.258.879-.258.341 0 .634.086.879.258.249.173.44.418.572.735.137.317.205.696.205 1.138v.012c0 .437-.068.817-.205 1.138a1.627 1.627 0 0 1-.572.734 1.512 1.512 0 0 1-.879.253ZM156.754 20.608c.55 0 1.025-.136 1.427-.409.405-.277.718-.67.939-1.18.225-.51.337-1.11.337-1.8v-.012c0-.699-.11-1.3-.331-1.806-.221-.51-.534-.901-.939-1.174-.402-.277-.879-.416-1.433-.416-.454 0-.859.105-1.216.313a1.93 1.93 0 0 0-.783.843h-.102v-3.594h-1.499V20.5h1.499v-1.03h.102c.181.358.444.637.789.837.345.201.748.301 1.21.301Zm-.47-1.264a1.54 1.54 0 0 1-.885-.253 1.69 1.69 0 0 1-.572-.734c-.132-.321-.198-.7-.198-1.138v-.012c0-.442.066-.821.198-1.138.137-.317.329-.562.578-.735.249-.172.542-.258.879-.258.341 0 .634.086.879.258.245.169.434.414.566.735.133.317.199.696.199 1.138v.012c0 .441-.066.82-.199 1.138a1.644 1.644 0 0 1-.566.734 1.512 1.512 0 0 1-.879.253ZM163.798 20.632c.658 0 1.222-.136 1.692-.409a2.75 2.75 0 0 0 1.089-1.18c.257-.51.386-1.12.386-1.83V17.2c0-.707-.129-1.315-.386-1.825a2.75 2.75 0 0 0-1.095-1.173c-.47-.273-1.032-.41-1.686-.41-.654 0-1.218.137-1.692.41-.47.273-.833.666-1.09 1.18-.257.51-.385 1.115-.385 1.818v.012c0 .71.126 1.32.379 1.83.257.51.622.903 1.096 1.18.474.273 1.038.41 1.692.41Zm0-1.216c-.349 0-.646-.086-.891-.259-.241-.172-.426-.423-.554-.752-.129-.33-.193-.725-.193-1.186v-.012c0-.466.064-.861.193-1.186.128-.33.315-.58.56-.753.245-.176.54-.265.885-.265s.638.089.879.265c.245.173.431.424.56.753.128.325.192.72.192 1.186v.012c0 .461-.064.857-.192 1.186a1.646 1.646 0 0 1-.56.752c-.241.173-.534.26-.879.26ZM167.633 20.5h1.607l1.349-2.288h.102l1.349 2.288h1.686l-2.156-3.33 2.132-3.25h-1.644l-1.3 2.281h-.103l-1.312-2.281h-1.728l2.149 3.317-2.131 3.263Z"></path>
    <path fill="#151515" d="m9.537 10.928 6.908-3.775a1.249 1.249 0 0 1 1.223.014l6.66 3.841a1 1 0 0 1 .499.866v8.167a.999.999 0 0 1-.502.866l-6.901 3.96a1 1 0 0 1-1.002-.004l-6.91-4.038a.999.999 0 0 1-.495-.863v-8.158c0-.365.2-.701.52-.876Z"></path>
    <path fill="#999" fill-rule="evenodd" d="M16.879 16.18v7.936a.63.63 0 0 0 .35-.1l6.307-3.632c.249-.144.35-.366.35-.656v-7.363a.622.622 0 0 0-.1-.353l-6.705 3.817a.404.404 0 0 0-.202.35Zm3.503 4.557c0 .202-.075.303-.25.404l-2.102 1.21c-.15.1-.35.05-.35-.151v-5.397c0-.144.126-.331.25-.403l4.805-2.774c.134-.078.25.046.25.201v2.875c0 .15-.07.283-.2.353l-2.152 1.16c-.13.07-.25.204-.25.353v2.17Z" clip-rule="evenodd"></path>
    <path fill="#F2F2F2" fill-rule="evenodd" d="M9.871 19.728v-7.363c0-.29.151-.563.4-.707l6.107-3.48c.132-.07.35-.1.5-.1.151 0 .383.037.501.1l6.057 3.48c.12.072.282.236.35.354l-6.707 3.833a.407.407 0 0 0-.2.353v7.918a.8.8 0 0 1-.4-.1l-6.157-3.582c-.25-.143-.45-.416-.45-.706Zm.901-5.9v2.874c0 .202.05.303.25.404l2.103 1.21c.2.101.25.252.25.404v2.017c0 .202.05.303.25.404l2.103 1.21c.2.1.35.05.35-.151v-5.397a.416.416 0 0 0-.25-.404l-4.705-2.723c-.15-.101-.35-.05-.35.151Zm8.209-3.43-1.852 1.059c-.15.1-.35.1-.5 0l-1.852-1.06a.412.412 0 0 0-.4 0l-2.303 1.312c-.2.1-.2.303 0 .403l4.605 2.674a.402.402 0 0 0 .4 0l4.605-2.674c.15-.1.2-.302 0-.403l-2.303-1.311a.412.412 0 0 0-.4 0Z" clip-rule="evenodd"></path>
</svg>